<svg width="73" height="27" viewBox="0 0 73 27" fill="none" xmlns="http://www.w3.org/2000/svg">
<path d="M12.0753 6.23438C11.9825 5.366 11.5914 4.68987 10.902 4.20597C10.2192 3.72206 9.33097 3.48011 8.23722 3.48011C7.46828 3.48011 6.80871 3.59612 6.25852 3.82812C5.70833 4.06013 5.28741 4.375 4.99574 4.77273C4.70407 5.17045 4.55492 5.62453 4.5483 6.13494C4.5483 6.55919 4.64441 6.92708 4.83665 7.23864C5.03551 7.55019 5.30398 7.81534 5.64205 8.03409C5.98011 8.24621 6.35464 8.42519 6.76562 8.57102C7.17661 8.71686 7.59091 8.83949 8.00852 8.93892L9.91761 9.41619C10.6866 9.59517 11.4257 9.83712 12.1349 10.142C12.8509 10.447 13.4905 10.8314 14.054 11.2955C14.6241 11.7595 15.0748 12.3196 15.4062 12.9759C15.7377 13.6321 15.9034 14.401 15.9034 15.2827C15.9034 16.4759 15.5985 17.5265 14.9886 18.4347C14.3788 19.3362 13.4972 20.0421 12.3438 20.5526C11.197 21.0563 9.80824 21.3082 8.17756 21.3082C6.59328 21.3082 5.2178 21.063 4.05114 20.5724C2.8911 20.0819 1.98295 19.366 1.3267 18.4247C0.677083 17.4834 0.325758 16.3366 0.272727 14.9844H3.90199C3.95502 15.6937 4.17377 16.2836 4.55824 16.7543C4.94271 17.2249 5.44318 17.5762 6.05966 17.8082C6.68277 18.0402 7.37879 18.1562 8.14773 18.1562C8.94981 18.1562 9.65246 18.0369 10.2557 17.7983C10.8655 17.553 11.3428 17.215 11.6875 16.7841C12.0322 16.3466 12.2079 15.8362 12.2145 15.2528C12.2079 14.7225 12.0521 14.285 11.7472 13.9403C11.4422 13.589 11.0147 13.2973 10.4645 13.0653C9.92093 12.8267 9.28456 12.6146 8.5554 12.429L6.23864 11.8324C4.56155 11.4015 3.2358 10.7486 2.26136 9.87358C1.29356 8.99195 0.809659 7.82197 0.809659 6.36364C0.809659 5.16382 1.13447 4.11316 1.78409 3.21165C2.44034 2.31013 3.33191 1.6108 4.45881 1.11364C5.5857 0.609848 6.86174 0.357954 8.28693 0.357954C9.73201 0.357954 10.9981 0.609848 12.0852 1.11364C13.179 1.6108 14.0374 2.3035 14.6605 3.19176C15.2836 4.07339 15.6051 5.08759 15.625 6.23438H12.0753ZM25.1079 21.3082C24.1401 21.3082 23.2684 21.1359 22.4929 20.7912C21.7239 20.4399 21.1141 19.9228 20.6633 19.2401C20.2192 18.5573 19.9971 17.7154 19.9971 16.7145C19.9971 15.8527 20.1562 15.1402 20.4744 14.5767C20.7926 14.0133 21.2268 13.5625 21.7769 13.2244C22.3271 12.8864 22.9469 12.6312 23.6363 12.4588C24.3323 12.2798 25.0516 12.1506 25.794 12.071C26.6889 11.9782 27.4147 11.8954 27.9715 11.8224C28.5284 11.7429 28.9327 11.6236 29.1846 11.4645C29.4431 11.2988 29.5724 11.0436 29.5724 10.6989V10.6392C29.5724 9.89015 29.3503 9.31013 28.9062 8.89915C28.4621 8.48816 27.8224 8.28267 26.9872 8.28267C26.1055 8.28267 25.4062 8.47491 24.8892 8.85938C24.3787 9.24384 24.034 9.69792 23.8551 10.2216L20.4943 9.74432C20.7594 8.81629 21.1969 8.04072 21.8068 7.41761C22.4166 6.78788 23.1624 6.31723 24.044 6.00568C24.9256 5.6875 25.9001 5.52841 26.9673 5.52841C27.7031 5.52841 28.4356 5.61458 29.1647 5.78693C29.8939 5.95928 30.5601 6.24432 31.1633 6.64204C31.7665 7.03314 32.2504 7.56676 32.615 8.2429C32.9862 8.91903 33.1718 9.7642 33.1718 10.7784V21H29.7116V18.902H29.5923C29.3735 19.3262 29.0653 19.724 28.6676 20.0952C28.2765 20.4598 27.7826 20.7547 27.186 20.9801C26.5961 21.1989 25.9034 21.3082 25.1079 21.3082ZM26.0426 18.6634C26.7651 18.6634 27.3915 18.5208 27.9218 18.2358C28.4521 17.9441 28.8598 17.5597 29.1448 17.0824C29.4365 16.6051 29.5823 16.0848 29.5823 15.5213V13.7216C29.4697 13.8144 29.2774 13.9006 29.0056 13.9801C28.7405 14.0597 28.4422 14.1293 28.1108 14.1889C27.7793 14.2486 27.4512 14.3016 27.1264 14.348C26.8016 14.3944 26.5198 14.4342 26.2812 14.4673C25.7443 14.5402 25.2637 14.6596 24.8394 14.8253C24.4152 14.991 24.0805 15.223 23.8352 15.5213C23.5899 15.813 23.4673 16.1908 23.4673 16.6548C23.4673 17.3177 23.7092 17.8182 24.1931 18.1562C24.677 18.4943 25.2935 18.6634 26.0426 18.6634ZM40.1615 26.7273C39.671 26.7273 39.2169 26.6875 38.7993 26.608C38.3883 26.535 38.0602 26.4489 37.8149 26.3494L38.6501 23.5455C39.1738 23.6979 39.6411 23.7708 40.0521 23.7642C40.4631 23.7576 40.8244 23.6283 41.1359 23.3764C41.4541 23.1312 41.7226 22.7202 41.9413 22.1435L42.2496 21.3182L36.7112 5.72727H40.5294L44.0493 17.2614H44.2084L47.7382 5.72727H51.5663L45.4513 22.8494C45.1662 23.6581 44.7884 24.3509 44.3177 24.9276C43.8471 25.5109 43.2704 25.955 42.5876 26.2599C41.9115 26.5715 41.1028 26.7273 40.1615 26.7273Z" fill="#FAF9F4"/>
<path d="M59.5851 0.636363V21H55.8962V0.636363H59.5851ZM72.7271 5.72727V8.51136H63.9473V5.72727H72.7271ZM66.1149 2.06818H69.7143V16.4062C69.7143 16.8902 69.7872 17.2614 69.9331 17.5199C70.0855 17.7718 70.2844 17.9441 70.5297 18.0369C70.7749 18.1297 71.0467 18.1761 71.345 18.1761C71.5704 18.1761 71.7759 18.1596 71.9615 18.1264C72.1537 18.0933 72.2995 18.0634 72.399 18.0369L73.0055 20.8509C72.8133 20.9171 72.5382 20.9901 72.1802 21.0696C71.8289 21.1491 71.398 21.1955 70.8876 21.2088C69.9861 21.2353 69.1741 21.0994 68.4515 20.8011C67.729 20.4962 67.1556 20.0256 66.7314 19.3892C66.3138 18.7528 66.1083 17.9574 66.1149 17.0028V2.06818Z" fill="#F3AA98"/>
</svg>
